<?xml version="1.0" encoding="UTF-8" standalone="no"?>
<svg
   xmlns:dc="http://purl.org/dc/elements/1.1/"
   xmlns:cc="http://creativecommons.org/ns#"
   xmlns:rdf="http://www.w3.org/1999/02/22-rdf-syntax-ns#"
   xmlns:svg="http://www.w3.org/2000/svg"
   xmlns="http://www.w3.org/2000/svg"
   xmlns:sodipodi="http://sodipodi.sourceforge.net/DTD/sodipodi-0.dtd"
   xmlns:inkscape="http://www.inkscape.org/namespaces/inkscape"
   version="1.1"
   id="Layer_1"
   x="0px"
   y="0px"
   viewBox="0 0 226.77 226.77"
   style="enable-background:new 0 0 226.77 226.77;"
   xml:space="preserve"
   sodipodi:docname="quart_uploads_full_logo_color.svg"
   inkscape:version="1.0.1 (c497b03c, 2020-09-10)"><metadata
   id="metadata881"><rdf:RDF><cc:Work
       rdf:about=""><dc:format>image/svg+xml</dc:format><dc:type
         rdf:resource="http://purl.org/dc/dcmitype/StillImage" /><dc:title></dc:title></cc:Work></rdf:RDF></metadata><defs
   id="defs879" /><sodipodi:namedview
   pagecolor="#ffffff"
   bordercolor="#666666"
   borderopacity="1"
   objecttolerance="10"
   gridtolerance="10"
   guidetolerance="10"
   inkscape:pageopacity="0"
   inkscape:pageshadow="2"
   inkscape:window-width="1920"
   inkscape:window-height="961"
   id="namedview877"
   showgrid="false"
   inkscape:zoom="2.9457159"
   inkscape:cx="113.385"
   inkscape:cy="113.385"
   inkscape:window-x="0"
   inkscape:window-y="25"
   inkscape:window-maximized="0"
   inkscape:current-layer="layer1" />
<path
   style="fill:#B7895B;"
   d="M34.777,66.865l-17.058,4.817c-1.022,0.269-2.075-0.316-2.386-1.326L10.56,53.387  c-0.269-1.022,0.316-2.076,1.326-2.387l17.058-4.817c1.022-0.269,2.075,0.316,2.386,1.326l4.773,16.969  C36.412,65.495,35.793,66.555,34.777,66.865z"
   id="path833"
   inkscape:export-xdpi="96"
   inkscape:export-ydpi="96" />
<path
   style="fill:#C49A6C;"
   d="M13.874,60.545l-1.193-4.286c-0.619-2.165,0.663-4.375,2.784-4.994l10.606-3.005  c2.165-0.619,4.375,0.663,4.994,2.784l1.193,4.286C32.258,55.33,13.874,60.545,13.874,60.545z"
   id="path835"
   inkscape:export-xdpi="96"
   inkscape:export-ydpi="96" />
<path
   style="fill:#B7895B;"
   d="M23.552,57.806c0,0,5.612-7.38,1.591-9.28l2.607-1.37l3.359,2.298l1.723,6.187  C32.832,55.641,23.552,57.806,23.552,57.806z"
   id="path837"
   inkscape:export-xdpi="96"
   inkscape:export-ydpi="96" />
<path
   style="fill:#99D5E8;"
   d="M12.856,64.045l22.329-6.306l13.044,46.188l-22.328,6.306L12.856,64.045z"
   id="path839"
   inkscape:export-xdpi="96"
   inkscape:export-ydpi="96" />
<ellipse
   transform="matrix(0.9624 -0.2718 0.2718 0.9624 -32.6596 16.9089)"
   style="fill:#99D5E8;"
   cx="44.712"
   cy="126.356"
   rx="43.751"
   ry="43.751"
   id="ellipse841"
   inkscape:export-xdpi="96"
   inkscape:export-ydpi="96" />
<ellipse
   transform="matrix(0.9624 -0.2718 0.2718 0.9624 -32.6596 16.9089)"
   style="fill:#BCE3F4;"
   cx="44.712"
   cy="126.356"
   rx="41.497"
   ry="41.497"
   id="ellipse843"
   inkscape:export-xdpi="96"
   inkscape:export-ydpi="96" />
<path
   style="fill:#BCE3F4;"
   d="M35.44,62.092l-20.77,5.877c-1.679,0.486-3.403-0.53-3.889-2.165  c-0.486-1.679,0.53-3.403,2.165-3.889l20.77-5.877c1.679-0.486,3.403,0.53,3.889,2.165C38.091,59.838,37.119,61.606,35.44,62.092z"
   id="path845"
   inkscape:export-xdpi="96"
   inkscape:export-ydpi="96" />
<path
   style="opacity:0.35;fill:#FFFFFF;enable-background:new    ;"
   d="M35.086,96.605c3.977,4.11-6.408,4.198-13.08,10.65  s-7.159,16.837-11.136,12.683c-3.977-4.11-1.768-12.683,4.905-19.135C22.492,94.351,31.109,92.451,35.086,96.605z"
   id="path847"
   inkscape:export-xdpi="96"
   inkscape:export-ydpi="96" />
<path
   style="fill:#BCE3F4;"
   d="M16.081,68.906l19.054-5.381l6.378,22.583l-19.054,5.381L16.081,68.906z"
   id="path849"
   inkscape:export-xdpi="96"
   inkscape:export-ydpi="96" />
<path
   style="fill:#99D5E8;"
   d="M35.086,63.506c0,0,0.928,21.742-5.612,23.996c0,0,21.919-3.756,31.155,0.53  c0,0-11.313-4.596-15.644-3.756C40.61,85.071,35.086,63.506,35.086,63.506z"
   id="path851"
   inkscape:export-xdpi="96"
   inkscape:export-ydpi="96" />
<linearGradient
   id="SVGID_1_"
   gradientUnits="userSpaceOnUse"
   x1="6.7409"
   y1="129.5471"
   x2="82.6596"
   y2="129.5471"
   gradientTransform="matrix(1 0 0 1 0 -0.05)">
	<stop
   offset="0"
   style="stop-color:#FAEB48"
   id="stop853" />
	<stop
   offset="0.04"
   style="stop-color:#FEE72F"
   id="stop855" />
	<stop
   offset="0.117"
   style="stop-color:#FFD51D"
   id="stop857" />
	<stop
   offset="0.196"
   style="stop-color:#FDCA12"
   id="stop859" />
	<stop
   offset="0.281"
   style="stop-color:#FDC710"
   id="stop861" />
	<stop
   offset="0.668"
   style="stop-color:#F39040"
   id="stop863" />
	<stop
   offset="0.888"
   style="stop-color:#ED683C"
   id="stop865" />
	<stop
   offset="1"
   style="stop-color:#E83E3B"
   id="stop867" />
</linearGradient>
<path
   style="fill:url(#SVGID_1_);"
   d="M67.168,95.721c7.778,2.43,11.666,11.799,14.053,20.284  c5.701,20.195-6.054,41.142-26.205,46.842s-41.142-6.054-46.842-26.205c-1.8-6.358-1.906-13.076-0.309-19.488  c0,0,9.147,14.583,25.056,7.336C48.829,117.286,45.824,89.048,67.168,95.721z"
   id="path870"
   inkscape:export-xdpi="96"
   inkscape:export-ydpi="96" />


<g
   inkscape:groupmode="layer"
   id="layer1"
   inkscape:label="Uploads Txt"><text
     xml:space="preserve"
     style="font-size:47.6387px;line-height:1.25;font-family:'IM FELL English';-inkscape-font-specification:'IM FELL English';stroke-width:1.19096"
     x="112.88923"
     y="107.98827"
     id="text885"
     transform="scale(0.77919096,1.2833824)"
     inkscape:export-xdpi="96"
     inkscape:export-ydpi="96"><tspan
       id="tspan883"
       x="112.88923"
       y="107.98827"
       sodipodi:role="line"
       style="font-size:35.7291px;stroke-width:1.19096">UPLOADS</tspan></text></g><g
   inkscape:groupmode="layer"
   id="layer2"
   inkscape:label="Quart Txt"><text
     xml:space="preserve"
     style="font-size:22.7821px;line-height:1.25;font-family:'IM FELL English';-inkscape-font-specification:'IM FELL English';stroke-width:1.13911"
     x="99.768402"
     y="85.570206"
     id="text893"
     transform="scale(0.87788128,1.1391062)"
     inkscape:export-xdpi="96"
     inkscape:export-ydpi="96"><tspan
       sodipodi:role="line"
       id="tspan891"
       x="99.768402"
       y="85.570206"
       style="font-size:22.7821px;fill:#000000;fill-opacity:1;stroke-width:1.13911">Quart</tspan></text></g><g
   inkscape:groupmode="layer"
   id="layer3"
   inkscape:label="Upload Icon"><path
     d="M 37.300655,148.93707 V 135.02928 H 27.287082 l 17.52376,-16.22576 17.523759,16.22576 H 52.321019 v 13.90779 H 37.300655 m -10.013573,9.27186 v -4.63592 h 35.047519 v 4.63592 z"
     id="path896"
     style="stroke-width:2.4089;fill:#000000;fill-opacity:1"
     inkscape:export-xdpi="96"
     inkscape:export-ydpi="96" /></g></svg>
